<svg xmlns="http://www.w3.org/2000/svg" viewBox="0 0 96.36 66.17"><g id="Layer_2" data-name="Layer 2"><g id="Layer_1-2" data-name="Layer 1"><path d="M96.36,64.7c-.87,1.52-1.53,1.77-3.25,1.18-3.19-1.11-6.38-2.23-9.58-3.3a2.37,2.37,0,0,0-1.42,0q-4.8,1.61-9.58,3.31a3.47,3.47,0,0,1-2.46,0q-4.77-1.71-9.58-3.31a2.56,2.56,0,0,0-1.5,0q-4.82,1.6-9.58,3.31a3.39,3.39,0,0,1-2.37,0q-4.78-1.71-9.58-3.31a2.69,2.69,0,0,0-1.59,0q-4.77,1.58-9.5,3.28a3.5,3.5,0,0,1-2.45,0c-3.19-1.13-6.38-2.24-9.59-3.3a2.56,2.56,0,0,0-1.5,0c-3.21,1.07-6.39,2.21-9.58,3.32-2,.69-3.06-.14-3.2-2.26a38.31,38.31,0,0,1,1.57-12C5.78,35.22,9.86,18.79,14,2.37,14.48.34,14.91,0,17,0H79.46c2.05,0,2.51.36,3,2.33L96.05,56.69c.07.29.21.57.31.86ZM25.46,39.48c-2.68-.92-5.3-1.84-7.94-2.73a1.58,1.58,0,0,0-.89.13c-2.36.82-4.71,1.67-7.08,2.48a1.31,1.31,0,0,0-1,1.08C8,42.81,7.4,45.18,6.81,47.54S5.59,52.43,4.93,55a37.58,37.58,0,0,0,4.29-1.51,9.29,9.29,0,0,1,8.68,0,53.32,53.32,0,0,0,5.56,2C24.14,50.07,24.8,44.8,25.46,39.48ZM46.11,55.31a2.26,2.26,0,0,0,.08-.41c0-4.91,0-9.83,0-14.74a1.11,1.11,0,0,0-.61-.82c-2.35-.87-4.71-1.68-7.08-2.47a2,2,0,0,0-1.16,0c-2.37.8-4.72,1.65-7.09,2.45a1.08,1.08,0,0,0-.84,1c-.31,2.79-.69,5.58-1,8.38-.26,2.1-.51,4.2-.78,6.41.41-.12.7-.19,1-.29,2.21-.77,4.44-1.52,6.63-2.33a4.14,4.14,0,0,1,3,0C40.79,53.49,43.42,54.38,46.11,55.31Zm45.4-.25C90.22,49.93,89,45,87.72,40.06a1.16,1.16,0,0,0-.7-.61c-2.2-.82-4.43-1.55-6.61-2.39a3.26,3.26,0,0,0-2.51,0c-2.29.84-4.59,1.61-6.93,2.42.67,5.34,1.33,10.6,2,16,2.88-1,5.63-1.93,8.35-2.92a4.14,4.14,0,0,1,3,0C86.64,53.4,89,54.18,91.51,55.06Zm-41.22.24c.36-.12.65-.2.94-.31,2.36-.82,4.73-1.62,7.08-2.47a4,4,0,0,1,2.91,0c2.2.81,4.42,1.56,6.64,2.33.3.1.61.18.93.27a1.8,1.8,0,0,0,.06-.3C68.24,50,67.64,45.08,67,40.21a1.3,1.3,0,0,0-.76-.85c-2.34-.87-4.7-1.69-7.08-2.48a2.18,2.18,0,0,0-1.24,0c-2.28.76-4.54,1.6-6.83,2.35a1,1,0,0,0-.86,1.18c0,4.66,0,9.33,0,14C50.24,54.68,50.27,55,50.29,55.3ZM86.34,34.92a1.5,1.5,0,0,0,0-.36c-1-4.16-2.07-8.31-3.14-12.46a1.31,1.31,0,0,0-.73-.69c-1.44-.53-2.94-.9-4.33-1.53a5.71,5.71,0,0,0-5.17,0c-1.37.64-2.85,1-4.3,1.54.59,4.7,1.17,9.29,1.76,14,2.39-.83,4.73-1.59,7-2.46a4.42,4.42,0,0,1,3.35,0C82.65,33.68,84.49,34.27,86.34,34.92ZM27.72,21.42c-2.24-.78-4.41-1.56-6.6-2.29a1.55,1.55,0,0,0-.89.1c-2.07.69-4.13,1.44-6.21,2.11a1.24,1.24,0,0,0-.93,1c-1,4-2,8-3,11.92a4,4,0,0,0-.05.66c1.87-.66,3.66-1.22,5.4-1.92A4.57,4.57,0,0,1,19,33c2.27.87,4.59,1.6,7,2.42Zm2.35,13.71A34.25,34.25,0,0,0,34,33.75a8.36,8.36,0,0,1,7.88,0,36.6,36.6,0,0,0,4.24,1.49,1.86,1.86,0,0,0,.1-.36c0-4.29,0-8.58,0-12.87a1,1,0,0,0-.62-.72c-2-.73-3.94-1.41-5.93-2.08a1.72,1.72,0,0,0-1,0c-2.1.7-4.2,1.41-6.28,2.18a1.26,1.26,0,0,0-.66.83c-.34,2.36-.63,4.72-.92,7.08C30.53,31.16,30.32,33.05,30.07,35.13Zm20.17.12c.45-.14.77-.23,1.09-.34,2-.7,4-1.46,6-2.06a4.27,4.27,0,0,1,2.35,0c1.89.55,3.73,1.27,5.59,1.92.3.1.62.17,1,.27,0-.32,0-.51,0-.69-.51-4.1-1-8.21-1.55-12.3a1.17,1.17,0,0,0-.7-.71q-3-1.11-6.12-2.12a2,2,0,0,0-1.16,0c-1.9.62-3.77,1.34-5.68,1.95a1,1,0,0,0-.85,1.18c0,3.92,0,7.84,0,11.76Zm42,26.07c.29-1.65.29-1.65-1.15-2.15-2.51-.87-5-1.77-7.54-2.6a2.64,2.64,0,0,0-1.5,0q-4.82,1.61-9.58,3.31a3.31,3.31,0,0,1-2.36,0q-4.82-1.71-9.67-3.34a2.37,2.37,0,0,0-1.42,0q-4.8,1.61-9.57,3.32a3.45,3.45,0,0,1-2.45,0q-4.82-1.72-9.66-3.35a2.27,2.27,0,0,0-1.34,0q-4.84,1.64-9.66,3.35a3.31,3.31,0,0,1-2.36,0q-4.86-1.74-9.76-3.37a2.23,2.23,0,0,0-1.33,0c-2.55.85-5.08,1.76-7.62,2.65-1.37.48-1.45.64-1,2.12,2.71-1,5.43-1.88,8.13-2.85a3.39,3.39,0,0,1,2.37,0c3.19,1.13,6.38,2.24,9.58,3.3a2.73,2.73,0,0,0,1.6,0c3.17-1.05,6.33-2.16,9.48-3.29a3.61,3.61,0,0,1,2.55,0c3.13,1.11,6.26,2.21,9.4,3.25a2.91,2.91,0,0,0,1.68,0c3.15-1,6.27-2.15,9.4-3.26a3.75,3.75,0,0,1,2.64,0q4.73,1.7,9.48,3.3a2.37,2.37,0,0,0,1.42,0c2.56-.84,5.15-1.61,7.61-2.67a7.58,7.58,0,0,1,6.48,0C88.05,60,90.17,60.61,92.25,61.32ZM29.89,4.05c-.43,0-.71,0-1,0C25.46,4,22,4,18.57,4c-.72,0-1,.25-1.12.91-.92,3.8-1.88,7.58-2.83,11.38a3.4,3.4,0,0,0,0,.64c1.39-.48,2.76-.86,4-1.41a5.22,5.22,0,0,1,4.42,0c1.66.7,3.39,1.2,5.15,1.81C28.79,12.87,29.33,8.53,29.89,4.05ZM66.54,4c.57,4.54,1.11,8.9,1.67,13.34,2.12-.74,4.13-1.42,6.13-2.15a3.34,3.34,0,0,1,2.45,0c1.66.61,3.34,1.15,5.12,1.75,0-.31,0-.49-.09-.67-1-3.82-1.94-7.64-2.86-11.47-.16-.68-.47-.81-1.09-.8-2.79,0-5.58,0-8.37,0Zm-20.39.07H33.93l-1.62,13c1.48-.51,2.82-.85,4.06-1.42a6.17,6.17,0,0,1,5.48,0c1.35.61,2.81,1,4.3,1.5Zm18,13c-.56-4.46-1.09-8.73-1.63-13H50.3V17.2c1.65-.57,3.25-1,4.76-1.67a5.38,5.38,0,0,1,4.51,0C61,16.13,62.49,16.54,64.13,17.1Z"/></g></g></svg>