<svg xmlns="http://www.w3.org/2000/svg" viewBox="0 0 69.91 97.77"><g id="Layer_2" data-name="Layer 2"><g id="Layer_1-2" data-name="Layer 1"><path d="M69.91,48.89V92.72c0,3.39-1.63,5-5,5H5.16C1.61,97.77,0,96.15,0,92.58V5.19C0,1.61,1.6,0,5.17,0h59.6c3.58,0,5.14,1.6,5.14,5.19ZM65.3,93.13V4.69H4.67V93.13Z"/><path d="M43.17,9.45c-1.3,1.26-2.53,2.53-3.86,3.69a3.28,3.28,0,0,1-1.88.81c-5,.07-10.09,0-15.13,0s-8,3.06-8,8q0,26.8,0,53.61c0,5.1,3,8.15,8.07,8.16q12.59,0,25.17,0c5.23,0,8.21-3,8.21-8.29q0-26.69,0-53.35a9,9,0,0,0-1.34-5c-2.36-3.71-7.82-3.45-9.83-.63A56.14,56.14,0,0,1,39,22.94a2.9,2.9,0,0,1-2.27.75,2.59,2.59,0,0,1-1.61-1.59,2.66,2.66,0,0,1,.56-2.1c2-2.48,4.16-4.92,6.36-7.26a10.14,10.14,0,0,1,15,.53,13,13,0,0,1,3.21,8.84c0,17.87,0,35.74,0,53.61,0,7.55-5.15,12.65-12.72,12.66-8.48,0-16.95,0-25.43,0A12,12,0,0,1,10,78.67a15.09,15.09,0,0,1-.24-2.85q0-26.94,0-53.87a12,12,0,0,1,4.9-10.16,11.09,11.09,0,0,1,6.78-2.35c7.22,0,14.43,0,21.65,0C43.13,9.42,43.21,9.46,43.17,9.45Z"/><path d="M20.6,73.78a3.76,3.76,0,0,1,3.74,3.72,3.85,3.85,0,0,1-3.86,3.77,3.74,3.74,0,0,1-3.63-3.82A3.67,3.67,0,0,1,20.6,73.78Z"/><path d="M16.85,20.24a3.7,3.7,0,0,1,3.71-3.72,3.82,3.82,0,0,1,3.78,3.71A3.75,3.75,0,0,1,20.51,24,3.68,3.68,0,0,1,16.85,20.24Z"/><path d="M49.13,73.79a3.66,3.66,0,0,1,3.76,3.64,3.72,3.72,0,1,1-7.44.09A3.66,3.66,0,0,1,49.13,73.79Z"/><path d="M49.13,24a3.68,3.68,0,0,1-3.68-3.73,3.72,3.72,0,1,1,7.44.08A3.68,3.68,0,0,1,49.13,24Z"/></g></g></svg>