<svg xmlns="http://www.w3.org/2000/svg" viewBox="0 0 90.75 81.9"><g id="Layer_2" data-name="Layer 2"><g id="Layer_1-2" data-name="Layer 1"><path d="M0,32.3c3.28-9.58,10.19-14.74,20.56-15.39,5.56-.34,11,.11,16.15,2.41,5.88,2.62,9.43,7,11.84,13.08,1.51,3.82,1.24,7.41,1.3,11.11.15,8.2,0,16.4.09,24.6a9.26,9.26,0,0,1-3.32,7.43c-3.82,3.42-8.55,4.71-13.44,5.6-1.69.31-3.4.51-5.11.76H21.92c-.76-.12-1.51-.27-2.27-.36C14.72,81,9.93,79.89,5.7,77.14,2.35,75,.44,72,.53,67.73c.19-9.15.08-18.32,0-27.48A23.89,23.89,0,0,0,0,36.53Zm46.53,10c-3.53.84-4.19,3.23-4.27,6.16a30.52,30.52,0,0,1-.76,6.25c-.43,1.75-2,2.47-3.73,2.34a3.39,3.39,0,0,1-3.26-2.77,10.88,10.88,0,0,1-.26-1.89c-.19-2.13-1.21-3.55-2.69-3.73s-2.88,1-3.5,3a7.51,7.51,0,0,0-.35,2.44c.09,3.39.3,6.77.39,10.16a3.27,3.27,0,0,1-2.47,3.64,3.89,3.89,0,0,1-4.47-1.78,6.34,6.34,0,0,1-.81-2.5c-.22-2.29-.23-4.61-.42-6.9a44.74,44.74,0,0,0-.75-5.89c-.49-2.16-1.62-2.56-3.53-1.49-.83.47-1.61,1-2.43,1.54-2.32,1.41-3.76,1-4.87-1.51a15.13,15.13,0,0,1-1.29-4c-.27-1.91-1.41-2.68-3.18-3.17,0,8.77,0,17.41,0,26.05a5.78,5.78,0,0,0,2,4.75,15,15,0,0,0,4,2.61,40.35,40.35,0,0,0,30.48.06c4.24-1.65,6.56-4.43,6.3-9.52C46.23,58.25,46.53,50.3,46.53,42.31ZM23.38,30.12A83.23,83.23,0,0,0,14,31.33,34.47,34.47,0,0,0,5.5,34.56c-2.3,1.21-2.24,3,0,4.46a21.85,21.85,0,0,0,5.36,2.46c7.48,2.3,15.12,2.4,22.8,1.36,3.81-.52,7.57-1.35,10.88-3.44a3,3,0,0,0,0-5.16,17,17,0,0,0-3.07-1.54C36.24,30.69,30.77,30.26,23.38,30.12Zm21.27,0a48.62,48.62,0,0,0-3.86-4.57C36.2,21.37,30.52,20,24.5,19.86S12.67,21.09,7.77,25a11.16,11.16,0,0,0-4.25,6.53C16.85,25.41,30.36,25.65,44.65,30.15Z"/><path d="M90.75,25c-1.15,3.49-3.61,4.78-7.2,4.68-5-.14-10.12-.07-15.17,0-4.28,0-5.29,1.08-5.29,5.38v9.12c.68,0,1.24.07,1.78.14a3.78,3.78,0,0,1,3.59,4q0,10,0,20A3.53,3.53,0,0,1,64.94,72a70.06,70.06,0,0,1-7.1,0,3.5,3.5,0,0,1-3.56-3.76c-.09-6.73-.11-13.45,0-20.17,0-2.61,1.56-3.58,5.47-4,0-.46.11-.94.11-1.43,0-2.94,0-5.89,0-8.83.08-4.63,2.46-7.2,7.05-7.33,5.57-.15,11.14-.07,16.71-.09,3.1,0,3.73-.63,3.74-3.67s0-6.15,0-9.22a2.35,2.35,0,0,0-2.6-2.67c0,.65-.08,1.21-.12,1.77a5.34,5.34,0,0,1-5.25,5.12q-17.87.09-35.73,0a5.11,5.11,0,0,1-4.91-4.34c-.14-.68-.2-1.39-.29-2.08l-.53.23a8.77,8.77,0,0,1-1.09-2.16c-.21-1.07-.15-2.22,1.69-1.67-.33-3.85,1-6.47,4.53-7.74H80c3.68,1.13,5.09,3.76,4.67,7.55,3.31,0,4.94,1.86,6.1,4.37ZM61.51,3.35c-5.57,0-11.13,0-16.7,0-2.13,0-2.87.79-2.9,2.89,0,1.86,0,3.72,0,5.57s.86,2.74,2.71,2.74q17,.06,34,0c1.9,0,2.8-1,2.86-2.86,0-1.54,0-3.07,0-4.61,0-3.17-.6-3.75-3.84-3.75Q69.57,3.34,61.51,3.35Z"/><rect x="36.76" y="7.56" width="2.32" height="4.12" rx="1.16"/></g></g></svg>