<svg xmlns="http://www.w3.org/2000/svg" viewBox="0 0 125.22 107.2"><defs><style>.cls-1,.cls-2{fill:none;stroke:#000;stroke-miterlimit:10;}.cls-1{stroke-width:4px;}</style></defs><g id="Layer_2" data-name="Layer 2"><g id="Layer_1-2" data-name="Layer 1"><polyline class="cls-1" points="77.93 68.69 123.22 68.69 123.22 105.2 2 105.2 2 68.69 47.29 68.69"/><polyline class="cls-1" points="77.93 69.68 77.93 10.44 47.29 10.44 47.29 69.68"/><circle cx="7.75" cy="74.81" r="2.06"/><circle cx="21.39" cy="74.81" r="2.06"/><circle cx="35.04" cy="74.81" r="2.06"/><circle cx="48.69" cy="74.81" r="2.06"/><circle cx="62.33" cy="74.81" r="2.06"/><circle cx="75.98" cy="74.81" r="2.06"/><circle cx="89.63" cy="74.81" r="2.06"/><circle cx="103.28" cy="74.81" r="2.06"/><circle cx="116.92" cy="74.81" r="2.06"/><circle cx="7.75" cy="98.89" r="2.06"/><circle cx="21.39" cy="98.89" r="2.06"/><circle cx="35.04" cy="98.89" r="2.06"/><circle cx="48.69" cy="98.89" r="2.06"/><circle cx="62.33" cy="98.89" r="2.06"/><circle cx="75.98" cy="98.89" r="2.06"/><circle cx="89.63" cy="98.89" r="2.06"/><circle cx="103.28" cy="98.89" r="2.06"/><circle cx="116.92" cy="98.89" r="2.06"/><line class="cls-2" x1="54.13" x2="54.13" y2="68.69"/><line class="cls-2" x1="62.57" x2="62.57" y2="68.69"/><line class="cls-2" x1="70.47" x2="70.47" y2="68.69"/></g></g></svg>