<svg xmlns="http://www.w3.org/2000/svg" viewBox="0 0 97.77 69.91"><g id="Layer_2" data-name="Layer 2"><g id="Layer_1-2" data-name="Layer 1"><path d="M48.89,0H92.72c3.39,0,5,1.64,5,5V64.75c0,3.56-1.62,5.16-5.19,5.16H5.19C1.61,69.91,0,68.32,0,64.74V5.14C0,1.56,1.6,0,5.19,0ZM93.13,4.61H4.69V65.24H93.13Z"/><path d="M9.45,26.74c1.26,1.3,2.53,2.53,3.69,3.87A3.25,3.25,0,0,1,14,32.49c.07,5,0,10.08,0,15.13s3.06,8,8,8.05H75.64c5.1,0,8.15-3,8.16-8.07q0-12.58,0-25.17c0-5.23-3-8.2-8.29-8.21H22.16a9,9,0,0,0-5,1.33c-3.71,2.36-3.45,7.83-.63,9.84A57.05,57.05,0,0,1,22.94,31a2.93,2.93,0,0,1,.75,2.28,2.59,2.59,0,0,1-1.59,1.61,2.66,2.66,0,0,1-2.1-.57c-2.48-2.05-4.92-4.15-7.26-6.35a10.14,10.14,0,0,1,.53-15A13,13,0,0,1,22.11,9.7c17.87,0,35.74,0,53.61,0,7.55,0,12.65,5.15,12.66,12.72,0,8.48,0,17,0,25.43a12,12,0,0,1-9.7,12.07,14.3,14.3,0,0,1-2.85.23q-26.94,0-53.87,0a12.08,12.08,0,0,1-10.16-4.91A11.07,11.07,0,0,1,9.44,48.5c0-7.21,0-14.43,0-21.64C9.42,26.78,9.46,26.71,9.45,26.74Z"/><path d="M73.78,49.31a3.75,3.75,0,0,1,3.72-3.73,3.84,3.84,0,0,1,3.77,3.86,3.75,3.75,0,0,1-3.82,3.63A3.69,3.69,0,0,1,73.78,49.31Z"/><path d="M20.24,53.07a3.71,3.71,0,0,1-3.72-3.72,3.81,3.81,0,0,1,3.71-3.77A3.75,3.75,0,0,1,24,49.4,3.69,3.69,0,0,1,20.24,53.07Z"/><path d="M73.79,20.79A3.65,3.65,0,0,1,77.43,17a3.73,3.73,0,0,1,3.84,3.73,3.77,3.77,0,0,1-3.75,3.71A3.67,3.67,0,0,1,73.79,20.79Z"/><path d="M45.14,20.79A3.66,3.66,0,0,1,48.79,17a3.73,3.73,0,0,1,3.84,3.73,3.77,3.77,0,0,1-3.75,3.71A3.68,3.68,0,0,1,45.14,20.79Z"/><path d="M45.14,49.36a3.68,3.68,0,0,1,3.65-3.76A3.72,3.72,0,1,1,48.88,53,3.68,3.68,0,0,1,45.14,49.36Z"/><path d="M24,20.78A3.74,3.74,0,1,1,20.34,17,3.7,3.7,0,0,1,24,20.78Z"/></g></g></svg>