<svg xmlns="http://www.w3.org/2000/svg" viewBox="0 0 97.81 67.09"><g id="Layer_2" data-name="Layer 2"><g id="Layer_1-2" data-name="Layer 1"><path d="M10.49,40.32l-1.65-.49-3.29-1a1.91,1.91,0,0,1-1.47-2v-7.1a1.91,1.91,0,0,1,1.46-1.92l4.94-1.43.29-.1-.34-.12-7.19-2.1a1.92,1.92,0,0,1-1.55-2q0-3.51,0-7a1.92,1.92,0,0,1,1.45-1.93L32.58,4.56,47.84.11a2.44,2.44,0,0,1,1.44,0l44.44,13a2.34,2.34,0,0,1,1.26.71,1.89,1.89,0,0,1,.44,1.2v7.24A1.89,1.89,0,0,1,94,24.1l-5,1.45-.33.1.34.12,7.33,2.13a1.92,1.92,0,0,1,1.42,1.89v7.13a1.91,1.91,0,0,1-1.46,1.95l-8.71,2.54-.32.09.27.1c1.52.45,3,.9,4.56,1.33A2,2,0,0,1,93.73,45v6.85A1.94,1.94,0,0,1,92.16,54L51.33,65.89c-1.25.36-2.5.72-3.75,1.1a2.44,2.44,0,0,1-1.44,0L22.41,60.06,1.56,54A1.94,1.94,0,0,1,0,51.91V45a1.94,1.94,0,0,1,1.51-2l8.68-2.53Zm0-25.35v0l.27.09L48.29,26a.92.92,0,0,0,.52,0l4-1.16L86.33,15.1l.31-.1-.41-.13L73.3,11.1Q61.06,7.53,48.81,4a.91.91,0,0,0-.49,0l-5,1.45L12.78,14.31ZM3.81,47.38v.36c0,.87,0,1.73,0,2.6a.35.35,0,0,0,.3.41L46.55,63.11a1.09,1.09,0,0,0,.62,0l19-5.53,23.46-6.84c.2-.06.29-.14.28-.36,0-.9,0-1.79,0-2.69,0-.09,0-.18,0-.3-.14,0-.25.06-.35.1l-8.8,2.56L47.58,59.73a2.37,2.37,0,0,1-1.42,0l-4.45-1.3L6.12,48.05ZM94,32.32a2.83,2.83,0,0,0-.28.07L79.07,36.65l-27.48,8a2.22,2.22,0,0,1-1.3,0l-2-.58L10.1,32.94,7.89,32.3v.34c0,.84,0,1.68,0,2.52a.45.45,0,0,0,.39.54q20.73,6,41.46,12.09a4,4,0,0,0,2.43,0q17.13-5,34.28-10l7.28-2.12c.21-.06.27-.15.27-.37,0-.91,0-1.81,0-2.72C94,32.5,94,32.43,94,32.32ZM91.59,17.56c-.14,0-.25.06-.35.1l-42,12.25a2.32,2.32,0,0,1-1.38,0c-1.5-.45-3-.88-4.51-1.32L5.92,17.67l-.4-.11c0,.12,0,.2,0,.28,0,.9,0,1.8,0,2.69,0,.24.07.32.29.39l12.44,3.62,30,8.74a1.11,1.11,0,0,0,.6,0l32.3-9.42,10.16-2.95a.34.34,0,0,0,.29-.39c0-.88,0-1.77,0-2.66Zm-6.7,27.3V44.8l-.29-.09C83.3,44.33,82,44,80.73,43.59a1,1,0,0,0-.54,0L51.68,51.9a2.47,2.47,0,0,1-1.45,0L17.63,42.4a1,1,0,0,0-.49,0L9.05,44.74l-.26.1.24.07,37.55,11a1.1,1.1,0,0,0,.57,0L82,45.71Zm-72-15.14v.07L17,31l33.61,9.8a1.19,1.19,0,0,0,.62,0L88.71,29.86l.31-.12-.35-.11-6.49-1.88a1.12,1.12,0,0,0-.63,0L49.33,37.14a2.85,2.85,0,0,1-1.61,0Q32.8,32.77,17.86,28.42a.9.9,0,0,0-.46,0l-2.66.77Z"/></g></g></svg>