<svg xmlns="http://www.w3.org/2000/svg" viewBox="0 0 84.83 93.93"><g id="Layer_2" data-name="Layer 2"><g id="Layer_1-2" data-name="Layer 1"><path d="M41.48,93.93c-.71-.45-1.38-1-2.13-1.35q-18.48-9.26-37-18.45A3.65,3.65,0,0,1,0,70.34Q.12,46.82,0,23.29A3.47,3.47,0,0,1,2.2,19.64Q21.36,10.16,40.45.54a3.87,3.87,0,0,1,3.93,0q19.08,9.63,38.25,19.1a3.5,3.5,0,0,1,2.19,3.66q-.09,23.52,0,47.05a3.64,3.64,0,0,1-2.36,3.79q-18.52,9.15-37,18.45a22.34,22.34,0,0,0-2.12,1.35ZM5.14,72c12.3,6.16,24.2,12.15,36.14,18A3.68,3.68,0,0,0,44,89.73c7.11-3.47,14.18-7,21.26-10.57l14.16-7.1a6.19,6.19,0,0,0-.89-.67C66.94,65.57,55.32,59.73,43.65,54a3.61,3.61,0,0,0-2.77.13c-7.39,3.61-14.73,7.33-22.09,11ZM3.43,32.25v37l37-18.52ZM44.36,50.77l37,18.51v-37ZM3.46,24.44c-.52,4-.52,4,2.71,5.66l32.09,16c.75.38,1.52.7,2.32,1.07.71-3.89.71-3.89-2.31-5.4L11.63,28.5Zm77.9,0c-.92.44-1.62.76-2.31,1.1L46.74,41.72c-3.22,1.61-3.22,1.61-2.48,5.49.79-.36,1.57-.7,2.32-1.07l32.1-16C81.91,28.47,81.91,28.47,81.36,24.48ZM31.82,35.07c3.54,1.77,6.53,3.31,9.56,4.75a2.58,2.58,0,0,0,1.93,0c3.38-1.59,6.7-3.3,10.48-5.19-3.63-1.81-6.89-3.45-10.17-5a1.42,1.42,0,0,0-1.08.1C39.12,31.42,35.71,33.13,31.82,35.07ZM26.33,21c-3.28-1.64-6-3-8.74-4.33a2.3,2.3,0,0,0-1.74-.2C12.38,18.08,9,19.84,5.16,21.74c3.25,1.62,6.1,3.08,9,4.46a2,2,0,0,0,1.49.06C19.06,24.61,22.45,22.88,26.33,21Zm13.34,6.68c-3.35-1.68-6.19-3.13-9.06-4.51a2,2,0,0,0-1.52,0c-3.41,1.65-6.78,3.37-10.59,5.28,3.32,1.66,6.21,3.15,9.15,4.55a2,2,0,0,0,1.52-.12C32.54,31.21,35.88,29.52,39.67,27.63Zm7.07,0c3.5,1.75,6.55,3.29,9.62,4.79a1.82,1.82,0,0,0,1.32.25c3-1.44,6-3,9.46-4.65-3.57-1.78-6.56-3.3-9.58-4.77A2.12,2.12,0,0,0,56,23C53,24.42,50.08,26,46.74,27.63ZM60.09,21c3.56,1.79,6.67,3.37,9.81,4.89a2,2,0,0,0,1.51,0c2.67-1.27,5.3-2.62,8.26-4.1-3.47-1.74-6.58-3.33-9.73-4.85a2,2,0,0,0-1.54-.07C65.75,18.07,63.14,19.42,60.09,21Zm-40-6.66c3.34,1.67,6.31,3.17,9.3,4.64a1.17,1.17,0,0,0,.9,0c3-1.48,6-3,9.39-4.68-3.24-1.62-5.94-3-8.7-4.3A2.61,2.61,0,0,0,29,9.84C26.15,11.18,23.33,12.65,20.08,14.29ZM33.43,21c3.35,1.69,6.24,3.16,9.16,4.59a1.45,1.45,0,0,0,1.12,0c3-1.44,5.93-2.94,9.29-4.62-3.29-1.64-6.07-3.06-8.87-4.41a2.1,2.1,0,0,0-1.54-.16C39.66,17.78,36.78,19.27,33.43,21ZM52.23,8c-3.24-1.62-6.09-3.09-9-4.45a2.28,2.28,0,0,0-1.72,0c-2.62,1.23-5.19,2.57-8.14,4.05,3.28,1.63,6.26,3.14,9.27,4.6a1.38,1.38,0,0,0,1.09,0C46.47,10.89,49.17,9.53,52.23,8Zm13.31,6.67c-3.17-1.6-5.94-3-8.76-4.39a2.35,2.35,0,0,0-1.72-.13c-2.66,1.24-5.26,2.6-8.31,4.13,3.3,1.65,6.19,3.14,9.13,4.54a2,2,0,0,0,1.51-.11C60,17.48,62.56,16.17,65.54,14.68Z"/></g></g></svg>