<svg xmlns="http://www.w3.org/2000/svg" viewBox="0 0 125.22 96.68"><defs><style>.cls-1,.cls-2{fill:none;stroke:#000;stroke-miterlimit:10;}.cls-1{stroke-width:4px;}</style></defs><g id="Layer_2" data-name="Layer 2"><g id="Layer_1-2" data-name="Layer 1"><rect class="cls-1" x="2" y="2" width="121.22" height="92.68"/><line class="cls-2" x1="11.47" y1="2" x2="11.47" y2="94.68"/><line class="cls-2" x1="21.57" y1="2" x2="21.57" y2="94.68"/><line class="cls-2" x1="31.68" y1="2" x2="31.68" y2="94.68"/><line class="cls-2" x1="41.79" y1="2" x2="41.79" y2="94.68"/><line class="cls-2" x1="51.9" y1="2" x2="51.9" y2="94.68"/><line class="cls-2" x1="62.01" y1="2" x2="62.01" y2="94.68"/><line class="cls-2" x1="72.12" y1="2" x2="72.12" y2="94.68"/><line class="cls-2" x1="82.22" y1="2" x2="82.22" y2="94.68"/><line class="cls-2" x1="92.33" y1="2" x2="92.33" y2="94.68"/><line class="cls-2" x1="102.44" y1="2" x2="102.44" y2="94.68"/><line class="cls-2" x1="112.55" y1="2" x2="112.55" y2="94.68"/><line class="cls-2" x1="2" y1="10.09" x2="123.22" y2="10.09"/><line class="cls-2" x1="2" y1="19.53" x2="123.22" y2="19.53"/><line class="cls-2" x1="2" y1="28.98" x2="123.22" y2="28.98"/><line class="cls-2" x1="2" y1="38.43" x2="123.22" y2="38.43"/><line class="cls-2" x1="2" y1="47.87" x2="123.22" y2="47.87"/><line class="cls-2" x1="2" y1="57.32" x2="123.22" y2="57.32"/><line class="cls-2" x1="2" y1="66.77" x2="123.22" y2="66.77"/><line class="cls-2" x1="2" y1="76.21" x2="123.22" y2="76.21"/><line class="cls-2" x1="2" y1="85.66" x2="123.22" y2="85.66"/></g></g></svg>