<svg xmlns="http://www.w3.org/2000/svg" viewBox="0 0 88.98 95.76"><g id="Layer_2" data-name="Layer 2"><g id="Layer_1-2" data-name="Layer 1"><path d="M30.84,46.11v1.53c0,2.06,0,4.11,0,6.16a5.26,5.26,0,0,1-1.54,3.79c-1.65,1.68-2.92,1.9-4.55.27a68,68,0,0,1-5.19-6.15c-.72-.92-2.24-2-3.2-1.57a3.3,3.3,0,0,0-1.71,1.72,4.27,4.27,0,0,0,.08,2.69A15.87,15.87,0,0,0,17,58.78a22.83,22.83,0,0,1,5,9.8,14.8,14.8,0,0,0,7.17,9.62A29.92,29.92,0,0,0,33.64,80a79.27,79.27,0,0,1-1.16,15.78l-3.16-.45c.3-2.81.58-5.5.86-8.18,0-.22,0-.44.07-.65.39-2.45.07-4.08-2.68-5.45a17,17,0,0,1-8.92-11.9,17.29,17.29,0,0,0-3.88-7.72,13.32,13.32,0,0,1-3.64-8.63,5.64,5.64,0,0,1,4.29-5.94c.33-.11.65-.83.65-1.27,0-6.2,0-12.41,0-18.61,0-.75,0-1.49,0-2.23a3.82,3.82,0,0,1,4-4q3.27,0,6.55,0a3.86,3.86,0,0,1,4.15,4.19c0,4.85.05,9.7,0,14.55A3.7,3.7,0,0,0,32.5,43a32.12,32.12,0,0,1,7.86,8.28,39,39,0,0,1,6.51,21.09c.14,7.47,0,15,0,22.42,0,.21,0,.43-.06.73H43.62V93.86c0-6.73,0-13.45,0-20.18a36.11,36.11,0,0,0-5.39-19.57A25.75,25.75,0,0,0,30.84,46.11ZM26.55,55.4l.59-.2a8.06,8.06,0,0,0,.4-1.7c0-1.57-.09-3.13-.09-4.7q0-11.59.1-23.17c0-1.65,0-1.67-1.7-1.67s-3.49,0-5.24,0c-.9,0-1.22.32-1.22,1.23,0,7.07,0,14.14,0,21.22a1.83,1.83,0,0,0,.48,1.1c1,1.21,2.18,2.33,3.21,3.55C24.3,52.48,25.41,54,26.55,55.4Z"/><path d="M24.16,81.53v3.21c-.41,0-.82.09-1.23.09-5.42,0-10.84,0-16.26,0C2.6,84.81,0,82.24,0,78.18q0-35.52,0-71C0,4.73.53,2.53,2.66,1.22A7.75,7.75,0,0,1,6.45.06C17.81,0,29.17,0,40.53,0c3.83,0,6.37,2.65,6.37,6.62q0,18,0,35.92c0,3-.1,5.93,0,8.89,0,1.35-.47,1.7-1.66,1.52-.47-.07-.94-.11-1.6-.18V45q0-18.81,0-37.62c0-3.14-.89-4-4.07-4H7.17c-2.89,0-3.86,1-3.86,3.84V77.74c0,2.74,1.06,3.79,3.81,3.79h17Z"/><path d="M60.44,27.65,67,31a9.19,9.19,0,0,1,1.4.71c2.81,2.1,5.56,2.06,8.46.11,1.16-.79,2.68-1.77,3.87-1.58s2.06,1.75,3,2.74c1.59,1.61,3.16,3.24,4.79,4.92l-2.5,2.32C84.41,38.4,82.64,36.6,81,34.73a1.42,1.42,0,0,0-2-.33A35.77,35.77,0,0,1,75.49,36a1.27,1.27,0,0,0-.95,1.56c.49,3.54.87,7.09,1.37,10.63a1.83,1.83,0,0,0,.91,1.09c2,1.06,4.13,2,6.2,3.07.3.15.58.33.94.54l-1.4,2.86c-2.32-1.08-4.53-2.28-6.87-3.15a4.52,4.52,0,0,1-3.32-4.58c-.14-3.35-.77-6.67-1.07-10a2.24,2.24,0,0,0-1.48-2c-6.34-3.12-12.67-6.28-19-9.43-.38-.19-.75-.4-1.25-.67L51,23c1.63.8,3.18,1.49,4.65,2.32a1.68,1.68,0,0,0,2.51-.41c3-3.37,6.11-6.61,9.15-9.93a1.7,1.7,0,0,1,1.92-.62c2.12.52,4.28.85,6.4,1.37a1.76,1.76,0,0,0,2.3-1c2.38-4.07,4.86-8.08,7.31-12.11l.89-1.44L89,2.92l-4.83,8c-1.59,2.61-3.19,5.22-4.74,7.85a1.3,1.3,0,0,1-1.67.76c-2.51-.57-5-1.07-7.57-1.53a1.61,1.61,0,0,0-1.25.28c-2.83,3-5.61,6-8.4,9C60.47,27.32,60.48,27.42,60.44,27.65Z"/></g></g></svg>