<svg xmlns="http://www.w3.org/2000/svg" viewBox="0 0 88.89 92.36"><defs><style>.cls-1,.cls-2{fill:none;stroke:#000;stroke-miterlimit:10;}.cls-1{stroke-width:5.39px;}.cls-2{stroke-width:1.35px;}</style></defs><g id="Layer_2" data-name="Layer 2"><g id="Layer_1-2" data-name="Layer 1"><polygon class="cls-1" points="85.31 89.67 3.41 89.67 24.18 2.69 60.33 2.69 85.31 89.67"/><polyline class="cls-2" points="35.92 2.69 38.67 15.59 35.92 35.01 16.13 36.42"/><polyline class="cls-2" points="38.67 14.61 52.76 19.56 63.53 13.83"/><polyline class="cls-2" points="35.92 35.01 41.3 42.11 38.61 56.32 11.38 56.32"/><polyline class="cls-2" points="38.61 56.32 49.1 65.03 55.74 78.56 53.45 89.67"/><polyline class="cls-2" points="36.26 89.67 33.74 71.22 49.1 65.03 64.8 57.18 55.74 33.29"/><polyline class="cls-2" points="33.74 71.22 24.06 65.95 8.01 70.41"/><polyline class="cls-2" points="52.76 19.56 55.74 33.29 41.3 42.11"/><polyline class="cls-2" points="55.74 33.29 64.11 37.53 68.69 31.82"/><polyline class="cls-2" points="64.8 57.18 68.69 71.22 80.39 72.53"/><line class="cls-2" x1="68.69" y1="71.22" x2="55.74" y2="78.56"/></g></g></svg>